<svg width="733" height="733" viewBox="0 0 733 733" fill="none" xmlns="http://www.w3.org/2000/svg">
<path d="M0.585304 376.195L282.354 352.177L24.7644 235.481L294.276 321.12L100.952 114.731L317.175 296.989L217.549 32.3288L347.566 283.458L356.804 0.818505L380.821 282.587L497.518 24.9975L411.879 294.509L618.267 101.185L436.01 317.409L700.67 217.782L449.54 347.799L732.18 357.037L450.411 381.055L708.001 497.751L438.49 412.112L631.814 618.501L415.59 436.243L515.217 700.903L385.199 449.774L375.962 732.413L351.944 450.644L235.248 708.234L320.887 438.723L114.498 632.047L296.756 415.823L32.0956 515.45L283.225 385.433L0.585304 376.195Z" fill="url(#paint0_radial_254_43)"/>
<defs>
<radialGradient id="paint0_radial_254_43" cx="0" cy="0" r="1" gradientUnits="userSpaceOnUse" gradientTransform="translate(366.383 366.616) rotate(-1.5) scale(365.923)">
<stop offset="0.2375" stop-color="#8AA2FD"/>
<stop offset="0.721875" stop-color="#FDC6C6"/>
<stop offset="0.982292" stop-color="#FDC6C6" stop-opacity="0"/>
</radialGradient>
</defs>
</svg>
