<svg width="414" height="714" viewBox="0 0 414 714" fill="none" xmlns="http://www.w3.org/2000/svg">
<path d="M207.942 -18.2524L218.579 294.195L347.975 9.60178L238.233 302.336L466.689 88.9238L253.276 317.379L546.011 207.638L261.417 337.033L573.865 347.67L261.417 358.307L546.011 487.703L253.276 377.961L466.689 606.417L238.233 393.004L347.975 685.739L218.579 401.145L207.942 713.593L197.305 401.145L67.9097 685.739L177.651 393.004L-50.8042 606.417L162.608 377.961L-130.126 487.703L154.467 358.307L-157.98 347.67L154.467 337.033L-130.126 207.638L162.608 317.379L-50.8042 88.9238L177.651 302.336L67.9097 9.60178L197.305 294.195L207.942 -18.2524Z" fill="url(#paint0_radial_476_811)"/>
<defs>
<radialGradient id="paint0_radial_476_811" cx="0" cy="0" r="1" gradientUnits="userSpaceOnUse" gradientTransform="translate(207.942 347.67) rotate(90) scale(365.923)">
<stop offset="0.133333" stop-color="#E4E4E4"/>
<stop offset="0.383333" stop-color="#C8B8F6"/>
<stop offset="0.753125" stop-color="#C8B8F6" stop-opacity="0"/>
</radialGradient>
</defs>
</svg>
