<svg width="414" height="661" viewBox="0 0 414 661" fill="none" xmlns="http://www.w3.org/2000/svg">
<g filter="url(#filter0_f_298_127)">
<path d="M-492.453 401.366C-458.173 303.044 -382.231 353.765 -349.476 421.316C-340.299 429.665 -333.679 449.482 -322.575 453.811C-302.345 461.7 -277.028 454.989 -256.569 454.634C-235.436 454.268 -213.35 454.581 -198.813 423.167C-183.472 390.02 -141.547 417.954 -124.668 428.72C-122.907 429.843 -92.3143 452.089 -91.2123 441.06C-90.4451 433.382 -92.5109 424.266 -87.8216 419.671C-81.4083 413.387 -64.8732 415.767 -58.5479 421.522C-39.3723 438.968 -30.3957 482.613 -12.2075 504.817C0.606873 520.46 14.9232 531.346 27.8035 546.773C41.6048 563.303 55.068 581.079 68.4927 598.601C78.3661 611.488 88.9987 630.185 101.27 635.21C115.679 641.109 133.931 627.509 132.691 598.19C132.203 586.635 117.038 574.978 112.12 571.453C98.9228 561.992 80.7391 555.75 69.6229 538.958C58.5103 522.17 52.5112 488.68 50.2956 463.684C47.6796 434.171 39.7084 402.107 28.7077 379.36C17.8373 356.883 -2.60684 343.909 -15.8243 326.504C-35.0131 301.235 -62.264 269.218 -64.4253 222.025C-67.0994 163.634 -29.0131 177.942 -9.4949 195.7C14.7396 217.749 27.8457 250.708 45.2095 287.427C57.1664 312.713 65.4996 329.547 72.1095 359.616C74.6085 370.985 83.6404 350.875 85.2205 348.099C91.5579 336.965 101.121 329 109.86 328.766C137.524 328.026 174.212 352.986 184.457 403.217C190.064 430.709 194.576 457.876 202.767 483.427C210.548 507.7 225.266 526.013 238.031 541.014C260.953 567.952 292.149 602.936 319.974 606.005C334.034 607.555 348.272 606.416 362.359 606.416C369.259 606.416 368.688 600.341 368.688 589.552C368.688 562.139 363.695 536.483 364.959 508.519C366.72 469.519 379.353 470.075 397.397 477.258C413.635 483.721 434.629 487.206 446.111 511.398C465.027 551.254 467.585 605.392 461.708 655.159C453.727 722.746 422.981 756.097 386.32 754.496C352.379 753.014 318.216 726.302 285.502 711.306C247.915 694.077 210.062 679.795 172.476 662.769C110.351 634.627 43.8252 639.098 -15.8243 592.431C-77.5876 544.11 -140.894 515.494 -207.968 513.866C-233.954 513.236 -259.966 513.866 -285.955 513.866C-315.593 513.866 -340.319 514.335 -367.786 534.639C-396.831 556.11 -435.333 583.935 -467.022 568.985C-481.438 562.184 -499.469 543.175 -506.694 518.597C-517.49 481.867 -503.126 431.979 -492.453 401.366Z" fill="url(#paint0_radial_298_127)"/>
</g>
<defs>
<filter id="filter0_f_298_127" x="-690.524" y="0.124084" width="1335.03" height="934.427" filterUnits="userSpaceOnUse" color-interpolation-filters="sRGB">
<feFlood flood-opacity="0" result="BackgroundImageFix"/>
<feBlend mode="normal" in="SourceGraphic" in2="BackgroundImageFix" result="shape"/>
<feGaussianBlur stdDeviation="90" result="effect1_foregroundBlur_298_127"/>
</filter>
<radialGradient id="paint0_radial_298_127" cx="0" cy="0" r="1" gradientUnits="userSpaceOnUse" gradientTransform="translate(-470.033 348.605) rotate(20.2568) scale(1172.48 1011.6)">
<stop stop-color="#8AA2FD"/>
<stop offset="0.732292" stop-color="#C8B9F4"/>
<stop offset="0.982292" stop-color="#C8B9F4" stop-opacity="0"/>
</radialGradient>
</defs>
</svg>
