<svg width="414" height="726" viewBox="0 0 414 726" fill="none" xmlns="http://www.w3.org/2000/svg">
<g filter="url(#filter0_f_298_151)">
<path d="M-227.694 825.957C-217.604 835.742 -207.4 845.013 -196.381 853.55L-197.997 850.965C-201.942 844.655 -191.038 842.11 -186.748 838.968C-181.654 835.238 -177.196 826.002 -172.859 820.909C-169.25 816.669 -162.45 813.85 -157.797 810.941C-140.173 799.922 -126.171 795.034 -105.154 799.816C-94.452 802.251 -82.9733 807.428 -72.1778 808.433C-62.2595 809.356 -47.7561 810.295 -39.1885 816.214C-30.308 822.349 -25.9323 831.786 -18.5478 839.161C-9.08324 848.615 0.390696 848.007 11.5903 854.379C34.9288 867.656 50.8358 876.307 77.9906 873.4C99.326 871.117 118.6 864.02 139.177 858.589C154.318 854.594 166.147 850.412 178.427 840.395C199.377 823.305 213.731 796.198 216.875 768.648C217.879 759.851 213.109 747.337 217.086 739.422C223.793 726.069 248.904 717.093 262.083 713.497C275.437 709.853 292.385 720.493 304.446 725.346C323.177 732.882 341.42 737.823 361.705 737.672C396.134 737.417 414.733 697.387 397.238 669.403C388.836 655.963 376.113 639.392 382.474 622.65C385.778 613.954 399.352 607.853 406.737 615.617C411.63 620.76 405.818 620.453 403.804 624.207C402.636 626.383 407.708 632.165 408.86 634.008C411.353 637.995 413.629 642.323 416.422 646.103C419.985 650.927 433.476 640.248 438.339 638.744C443.807 637.053 456.349 640.01 460.944 644.054C467.629 649.937 477.235 661.682 485.264 663.46C494.001 665.396 507.625 673.13 516.786 669.539C529.173 664.682 537.838 665.51 552.013 666.545C570.119 667.866 585.235 673.788 595.25 655.371C606.276 635.096 610.361 623.561 606.998 600.041C604.704 583.999 608.419 575.322 599.359 560.83C596.401 556.099 593.646 550.633 589.863 546.497C582.309 538.239 565.863 541.492 556.243 542.42C544.077 543.593 514.105 554.849 507.791 567.746C504.356 574.764 505.505 581.045 498.754 586.496C495.125 589.426 490.721 591.656 486.779 594.12C475.286 601.305 465.694 609.69 451.558 606.762C434.127 603.152 412.304 614.396 405.498 589.641C402.695 579.446 427.171 582.169 430.965 582.82C454 586.77 483.494 586.853 499.906 567.987C512.656 553.332 497.795 537.19 489.547 523.996C480.264 509.149 458.031 507.856 442.607 510.182C431.834 511.807 416.435 520.501 405.559 515.832C399.98 513.436 393.372 497.409 390.202 492.339C380.185 476.315 361.503 482.772 347.575 475.139C334.486 467.966 333.28 451.209 337.275 439.384C338.993 434.301 339.694 425.026 343.224 421.049C347.706 416 356.165 412.683 361.78 409.173C387.719 392.956 414.931 385.613 445.818 384.212C471.645 383.041 497.36 385.272 523.181 383.281C546.205 381.506 568.991 379.91 592.107 379.351C620.376 378.666 648.113 375.837 676.239 374.464C700.464 373.281 723.91 371.386 748.152 372.527C760.289 373.098 775.443 368.889 780.248 356.598C794.517 320.101 736.794 283.136 713.676 266.395L713.192 266.044C695.372 253.138 668.814 233.902 646.179 242.405C634.271 246.879 626.209 257.271 618.995 267.26C603.196 289.133 582.486 317.092 551.587 315.607C495 312.886 451.045 276.171 403.935 248.238C372.884 229.827 336.774 248.058 309.31 263.547C256.514 293.321 210.145 338.188 170.09 383.401C163.747 390.56 153.112 411.042 141.081 407.052C129.032 403.056 122.594 410.444 115.589 419.404C107.404 429.874 105.09 433.458 111.888 444.331C127.593 469.452 146.285 492.496 161.951 517.554C181.633 549.037 179.182 595.674 170.339 629.516C162.664 658.89 131.831 682.663 103.964 690.868C87.9572 695.58 70.9457 695.031 54.3239 695.013C26.9941 694.983 -0.592653 694.57 -27.9193 693.066C-56.2533 691.506 -81.9519 683.86 -110.625 688.237C-152.937 694.695 -193.089 718.013 -225.111 745.47C-232.993 752.228 -263.364 776.657 -257.561 791.68C-252.623 804.462 -236.807 817.119 -227.694 825.957Z" fill="url(#paint0_radial_298_151)"/>
</g>
<defs>
<filter id="filter0_f_298_151" x="-498.292" y="0.306152" width="1520.78" height="1113.66" filterUnits="userSpaceOnUse" color-interpolation-filters="sRGB">
<feFlood flood-opacity="0" result="BackgroundImageFix"/>
<feBlend mode="normal" in="SourceGraphic" in2="BackgroundImageFix" result="shape"/>
<feGaussianBlur stdDeviation="120" result="effect1_foregroundBlur_298_151"/>
</filter>
<radialGradient id="paint0_radial_298_151" cx="0" cy="0" r="1" gradientUnits="userSpaceOnUse" gradientTransform="translate(-96.8563 1055.5) rotate(-58.4218) scale(1194.99 2921.49)">
<stop offset="0.125057" stop-color="#8AA2FD"/>
<stop offset="0.789583" stop-color="white"/>
<stop offset="1" stop-color="white" stop-opacity="0"/>
</radialGradient>
</defs>
</svg>
