<svg width="415" height="678" viewBox="0 0 415 678" fill="none" xmlns="http://www.w3.org/2000/svg">
<g filter="url(#filter0_f_372_4)">
<path d="M-58.7409 516.727C-50.6513 522.302 -42.543 527.509 -33.9577 532.117L-35.3715 530.522C-38.8222 526.63 -31.6011 523.612 -29.0078 520.948C-25.9294 517.787 -23.9267 510.904 -21.5279 506.89C-19.5315 503.549 -15.1711 500.817 -12.3007 498.272C-1.4295 488.634 7.6554 483.642 22.6972 484.501C30.3564 484.939 38.869 487.177 46.4271 486.618C53.371 486.105 63.4772 485.07 70.0692 488.157C76.9019 491.357 81.0121 497.354 86.9574 501.582C94.5775 507.002 101.037 505.484 109.496 508.578C127.123 515.025 139.091 519.143 157.472 513.992C171.914 509.945 184.377 502.818 197.932 496.689C207.906 492.18 215.574 487.926 222.878 479.597C235.338 465.388 242.09 445.039 241.064 425.684C240.736 419.503 235.997 411.431 237.82 405.513C240.896 395.531 257.165 386.433 265.832 382.426C274.615 378.366 287.531 383.736 296.407 385.683C310.192 388.706 323.34 389.997 337.306 387.542C361.008 383.374 369.189 353.625 353.885 336.363C346.535 328.073 335.844 318.125 338.288 305.847C339.557 299.47 348.207 293.691 354.197 298.186C358.167 301.165 354.125 301.627 353.172 304.448C352.619 306.083 356.785 309.481 357.793 310.617C359.973 313.077 362.044 315.796 364.407 318.078C367.423 320.99 375.484 312.065 378.662 310.465C382.236 308.665 391.224 309.25 394.86 311.504C400.15 314.785 408.133 321.767 413.873 322.062C420.12 322.383 430.409 326.135 436.307 322.597C444.282 317.814 450.351 317.38 460.242 316.45C472.876 315.262 483.982 317.591 488.751 303.735C494.001 288.481 495.48 280.056 490.435 264.234C486.993 253.441 488.548 247.03 480.623 238.09C478.036 235.172 475.503 231.724 472.416 229.311C466.251 224.494 455.292 228.644 448.768 230.398C440.518 232.617 421.163 243.851 418.306 253.473C416.751 258.709 418.271 262.905 414.25 267.445C412.088 269.886 409.311 271.933 406.879 274.089C399.79 280.374 394.15 287.266 384.067 286.887C371.633 286.419 357.893 296.699 350.332 280.424C347.218 273.722 364.405 272.762 367.096 272.77C383.432 272.822 403.772 269.46 412.899 254.554C419.988 242.974 407.873 233.569 400.658 225.431C392.538 216.272 377.062 217.959 366.7 221.35C359.463 223.719 349.855 231.497 341.817 229.539C337.694 228.535 331.281 218.253 328.508 215.126C319.745 205.242 307.616 211.859 297.131 208.212C287.276 204.785 284.502 193.373 285.886 184.759C286.48 181.056 285.888 174.581 287.86 171.431C290.365 167.431 295.811 164.164 299.275 161.093C315.275 146.908 333.181 138.692 354.31 134.145C371.977 130.343 389.961 128.9 407.529 124.534C423.194 120.642 438.716 116.9 454.586 113.834C473.992 110.086 492.784 104.92 512.012 100.712C528.574 97.0887 544.516 93.0642 561.359 91.0404C569.791 90.0273 579.749 85.3687 581.636 76.3399C587.241 49.5274 543.167 30.7389 525.29 21.8788L524.915 21.6932C511.136 14.8625 490.599 4.68195 475.982 13.1673C468.292 17.6313 463.94 25.7297 460.125 33.4515C451.771 50.3607 440.736 72.0339 419.264 74.5922C379.943 79.2773 345.387 59.0647 309.676 45.2715C286.137 36.1801 263.36 52.9329 246.224 66.7936C213.283 93.4384 186.521 129.741 164.152 165.551C160.61 171.221 155.653 186.572 146.898 185.217C138.129 183.859 134.547 189.698 130.758 196.686C126.329 204.853 125.15 207.591 131.096 214.298C144.834 229.794 160.39 243.511 174.094 258.968C191.311 278.388 195.028 310.82 192.856 335.172C190.971 356.31 172.473 376.272 154.215 385.158C143.728 390.263 131.938 391.856 120.478 393.771C101.636 396.918 82.5717 399.832 63.5607 401.963C43.8488 404.173 25.2479 401.881 5.9904 408.222C-22.4272 417.579 -47.401 438.308 -66.2915 460.946C-70.9409 466.518 -89.044 486.879 -83.3024 496.561C-78.4169 504.8 -66.0471 511.691 -58.7409 516.727Z" fill="url(#paint0_radial_372_4)"/>
</g>
<defs>
<filter id="filter0_f_372_4" x="-229.416" y="-135.057" width="956.541" height="812.174" filterUnits="userSpaceOnUse" color-interpolation-filters="sRGB">
<feFlood flood-opacity="0" result="BackgroundImageFix"/>
<feBlend mode="normal" in="SourceGraphic" in2="BackgroundImageFix" result="shape"/>
<feGaussianBlur stdDeviation="72.5" result="effect1_foregroundBlur_372_4"/>
</filter>
<radialGradient id="paint0_radial_372_4" cx="0" cy="0" r="1" gradientUnits="userSpaceOnUse" gradientTransform="translate(286.237 631.306) rotate(-78.4778) scale(806.198 1970.98)">
<stop offset="0.263542" stop-color="#96AAF3" stop-opacity="0.9"/>
<stop offset="0.789583" stop-color="#D0D0D0"/>
<stop offset="1" stop-color="#D0D0D0"/>
</radialGradient>
</defs>
</svg>
