<svg width="415" height="732" viewBox="0 0 415 732" fill="none" xmlns="http://www.w3.org/2000/svg">
<g filter="url(#filter0_f_372_5)">
<path d="M80.0577 157.258C71.2871 161.685 62.8306 166.306 54.6719 171.632L56.749 171.156C61.8189 169.993 61.0067 177.777 62.1014 181.33C63.4008 185.547 68.4816 190.604 70.8546 194.633C72.8297 197.986 73.1374 203.122 73.9951 206.861C77.2433 221.022 77.2706 231.388 69.3066 244.178C65.2514 250.69 59.2072 257.088 56.0749 263.99C53.1972 270.33 49.2609 279.695 43.3922 284.001C37.3092 288.464 30.0756 289.197 23.5151 292.388C15.1066 296.479 13.3421 302.876 6.57257 308.817C-7.53426 321.197 -16.8852 329.726 -21.1744 348.328C-24.5443 362.943 -24.2632 377.297 -25.3812 392.13C-26.2039 403.045 -26.1462 411.815 -22.337 422.216C-15.8386 439.963 -1.21573 455.642 16.2636 464.018C21.8447 466.693 31.2011 466.403 35.5207 470.84C42.8072 478.323 42.9945 496.962 42.3566 506.49C41.7103 516.144 30.8067 524.906 24.8436 531.763C15.5831 542.413 8.14797 553.333 3.60929 566.767C-4.09376 589.567 18.0947 611.005 40.5797 605.848C51.3782 603.371 65.233 598.756 74.8377 606.785C79.8266 610.956 80.7527 621.317 73.9358 624.42C69.4193 626.476 70.9511 622.707 68.9322 620.519C67.7618 619.25 62.7831 621.278 61.3023 621.617C58.0984 622.352 54.7191 622.866 51.584 623.846C47.5827 625.097 51.5522 636.45 51.4337 640.006C51.3003 644.005 46.479 651.613 42.7574 653.724C37.343 656.794 27.3887 660.454 24.3781 665.351C21.1021 670.679 12.8777 677.911 13.1557 684.783C13.5315 694.075 11.0032 699.61 7.07878 708.736C2.06589 720.394 -5.30177 729.025 4.57332 739.851C15.4447 751.77 22.1303 757.106 38.435 760.262C49.5564 762.415 54.4381 766.853 66.0822 764.182C69.8837 763.31 74.1238 762.74 77.7211 761.186C84.9033 758.085 86.5146 746.477 88.1015 739.911C90.1084 731.607 89.5263 709.235 82.4505 702.116C78.6007 698.242 74.1892 697.565 72.1321 691.859C71.0264 688.792 70.5605 685.373 69.834 682.206C67.7159 672.972 64.3707 664.719 69.5362 656.051C75.9063 645.362 73.4694 628.376 91.3772 629.541C98.7523 630.02 91.3572 645.565 90.0596 647.923C82.1839 662.235 75.3854 681.698 84.0941 696.852C90.8592 708.625 104.92 702.5 115.521 700.068C127.45 697.332 133.388 682.941 135.378 672.221C136.768 664.734 134.546 652.574 140.117 646.457C142.975 643.32 155.073 642.62 159.147 641.685C172.022 638.732 172.028 624.916 180.254 617.461C187.985 610.455 199.33 613.49 206.227 618.833C209.192 621.129 215.158 623.713 216.978 626.954C219.288 631.069 219.545 637.415 220.58 641.927C225.361 662.769 223.989 682.422 217.852 703.144C212.721 720.472 205.368 736.948 200.779 754.459C196.687 770.073 192.531 785.489 187.615 800.886C181.604 819.715 177.131 838.684 171.607 857.576C166.849 873.849 162.74 889.769 156.443 905.521C153.291 913.407 152.607 924.379 159.626 930.363C180.472 948.134 218.086 918.458 234.431 907.015L234.773 906.775C247.373 897.956 266.151 884.811 265.71 867.915C265.478 859.027 260.457 851.325 255.508 844.276C244.672 828.839 230.94 808.766 238.986 788.696C253.721 751.94 288.023 731.3 317.245 706.569C336.507 690.268 332.721 662.248 328.769 640.565C321.174 598.883 302.139 557.996 281.433 521.2C278.154 515.374 267.057 503.665 272.443 496.631C277.838 489.585 274.429 483.643 270.113 476.968C265.068 469.167 263.23 466.82 254.493 468.824C234.309 473.454 214.814 480.532 194.68 485.15C169.384 490.953 139.138 478.67 118.807 465.091C101.159 453.305 92.5051 427.503 93.4574 407.22C94.0045 395.569 98.2568 384.458 102.069 373.482C108.338 355.437 114.918 337.309 122.16 319.603C129.669 301.243 140.595 286.017 144.26 266.076C149.669 236.65 143.447 204.797 132.632 177.367C129.971 170.616 120.778 144.969 109.528 145.367C99.9561 145.706 87.979 153.259 80.0577 157.258Z" fill="url(#paint0_radial_372_5)"/>
</g>
<defs>
<filter id="filter0_f_372_5" x="-170.807" y="0.362427" width="647.776" height="1080.54" filterUnits="userSpaceOnUse" color-interpolation-filters="sRGB">
<feFlood flood-opacity="0" result="BackgroundImageFix"/>
<feBlend mode="normal" in="SourceGraphic" in2="BackgroundImageFix" result="shape"/>
<feGaussianBlur stdDeviation="72.5" result="effect1_foregroundBlur_372_5"/>
</filter>
<radialGradient id="paint0_radial_372_5" cx="0" cy="0" r="1" gradientUnits="userSpaceOnUse" gradientTransform="translate(-185.853 405.109) rotate(40.1623) scale(806.198 1970.98)">
<stop offset="0.263542" stop-color="#96AAF3" stop-opacity="0.9"/>
<stop offset="0.789583" stop-color="#D0D0D0"/>
<stop offset="1" stop-color="#D0D0D0"/>
</radialGradient>
</defs>
</svg>
